<?xml version="1.0" standalone="no"?>
<!DOCTYPE svg PUBLIC "-//W3C//DTD SVG 20010904//EN"
 "http://www.w3.org/TR/2001/REC-SVG-20010904/DTD/svg10.dtd">
<svg version="1.0" xmlns="http://www.w3.org/2000/svg"
 width="447.000000pt" height="447.000000pt" viewBox="0 0 447.000000 447.000000"
 preserveAspectRatio="xMidYMid meet">

<g transform="translate(0.000000,447.000000) scale(0.100000,-0.100000)"
fill="#000000" stroke="none">
<path d="M630 3601 l0 -69 77 -7 c98 -9 155 -26 200 -60 66 -51 82 -81 394
-760 15 -33 94 -206 177 -385 204 -444 353 -766 527 -1145 237 -517 232 -507
252 -503 17 3 28 26 298 663 70 165 178 419 240 565 62 146 149 353 195 460
45 107 101 240 125 295 23 55 86 204 140 330 133 317 171 391 230 452 58 60
108 78 240 89 l85 7 0 68 0 69 -527 -2 -528 -3 -3 -67 -3 -68 53 0 c92 0 230
-20 274 -39 23 -11 50 -31 60 -47 22 -32 23 -109 4 -181 -11 -43 -620 -1577
-640 -1613 -9 -16 -4 -28 -122 250 -39 91 -155 363 -258 605 -104 242 -209
490 -235 550 -53 124 -89 231 -99 291 -11 63 15 118 68 144 44 21 154 39 241
40 l50 0 -1 67 -2 68 -756 3 -756 2 0 -69z"/>
</g>
</svg>
